<?xml version="1.0" encoding="utf-8" ?>
<svg baseProfile="full" height="170mm" version="1.1" viewBox="0 0 300 170" width="300mm" xmlns="http://www.w3.org/2000/svg" xmlns:ev="http://www.w3.org/2001/xml-events" xmlns:inkscape="http://www.inkscape.org/namespaces/inkscape" xmlns:sodipodi="http://sodipodi.sourceforge.net/DTD/sodipodi-0.dtd" xmlns:xlink="http://www.w3.org/1999/xlink">
  <defs/>
  <path d="M5,5 l232,0 l0,160 l-232,0 l0,-160" fill="none" stroke="black" stroke-width="0.1"/>
  <circle cx="227.0" cy="148.75" fill="none" r="1.75" stroke="black" stroke-width="0.1"/>
  <line fill="none" stroke="black" stroke-width="0.1" x1="225.25" x2="228.75" y1="148.75" y2="148.75"/>
  <line fill="none" stroke="black" stroke-width="0.1" x1="227.0" x2="227.0" y1="147.0" y2="150.5"/>
  <circle cx="227.0" cy="47.25" fill="none" r="1.75" stroke="black" stroke-width="0.1"/>
  <line fill="none" stroke="black" stroke-width="0.1" x1="225.25" x2="228.75" y1="47.25" y2="47.25"/>
  <line fill="none" stroke="black" stroke-width="0.1" x1="227.0" x2="227.0" y1="45.5" y2="49.0"/>
  <circle cx="170.0" cy="148.75" fill="none" r="1.75" stroke="black" stroke-width="0.1"/>
  <line fill="none" stroke="black" stroke-width="0.1" x1="168.25" x2="171.75" y1="148.75" y2="148.75"/>
  <line fill="none" stroke="black" stroke-width="0.1" x1="170.0" x2="170.0" y1="147.0" y2="150.5"/>
  <circle cx="170.0" cy="47.25" fill="none" r="1.75" stroke="black" stroke-width="0.1"/>
  <line fill="none" stroke="black" stroke-width="0.1" x1="168.25" x2="171.75" y1="47.25" y2="47.25"/>
  <line fill="none" stroke="black" stroke-width="0.1" x1="170.0" x2="170.0" y1="45.5" y2="49.0"/>
  <path d="M167.000000,44.000000 l63.000000,0 l0,108.000000 l-63.000000,0 l0,-108.000000 " fill="none" stroke="black" stroke-width="0.1"/>
  <circle cx="90.0" cy="148.0" fill="none" r="1.75" stroke="black" stroke-width="0.1"/>
  <line fill="none" stroke="black" stroke-width="0.1" x1="88.25" x2="91.75" y1="148.0" y2="148.0"/>
  <line fill="none" stroke="black" stroke-width="0.1" x1="90.0" x2="90.0" y1="146.25" y2="149.75"/>
  <circle cx="90.0" cy="72.0" fill="none" r="1.75" stroke="black" stroke-width="0.1"/>
  <line fill="none" stroke="black" stroke-width="0.1" x1="88.25" x2="91.75" y1="72.0" y2="72.0"/>
  <line fill="none" stroke="black" stroke-width="0.1" x1="90.0" x2="90.0" y1="70.25" y2="73.75"/>
  <circle cx="14.0" cy="148.0" fill="none" r="1.75" stroke="black" stroke-width="0.1"/>
  <line fill="none" stroke="black" stroke-width="0.1" x1="12.25" x2="15.75" y1="148.0" y2="148.0"/>
  <line fill="none" stroke="black" stroke-width="0.1" x1="14.0" x2="14.0" y1="146.25" y2="149.75"/>
  <circle cx="14.0" cy="72.0" fill="none" r="1.75" stroke="black" stroke-width="0.1"/>
  <line fill="none" stroke="black" stroke-width="0.1" x1="12.25" x2="15.75" y1="72.0" y2="72.0"/>
  <line fill="none" stroke="black" stroke-width="0.1" x1="14.0" x2="14.0" y1="70.25" y2="73.75"/>
  <path d="M10.000000,68.000000 l84.000000,0 l0,84.000000 l-84.000000,0 l0,-84.000000 " fill="none" stroke="black" stroke-width="0.1"/>
  <path d="M114.000000,21.000000 l28.000000,0 l0,68.000000 l-28.000000,0 l0,-68.000000 " fill="none" stroke="black" stroke-width="0.1"/>
  <path d="M114.000000,9.500000 l28.000000,0 l0,91.000000 l-28.000000,0 l0,-91.000000 " fill="none" stroke="black" stroke-width="0.1"/>
  <path d="M100.500000,32.500000 l55.000000,0 l0,45.000000 l-55.000000,0 l0,-45.000000 " fill="none" stroke="black" stroke-width="0.1"/>
  <circle cx="128.0" cy="94.0" fill="none" r="1.75" stroke="black" stroke-width="0.1"/>
  <line fill="none" stroke="black" stroke-width="0.1" x1="126.25" x2="129.75" y1="94.0" y2="94.0"/>
  <line fill="none" stroke="black" stroke-width="0.1" x1="128.0" x2="128.0" y1="92.25" y2="95.75"/>
  <circle cx="128.0" cy="16.0" fill="none" r="1.75" stroke="black" stroke-width="0.1"/>
  <line fill="none" stroke="black" stroke-width="0.1" x1="126.25" x2="129.75" y1="16.0" y2="16.0"/>
  <line fill="none" stroke="black" stroke-width="0.1" x1="128.0" x2="128.0" y1="14.25" y2="17.75"/>
</svg>
