<?xml version="1.0" encoding="utf-8" ?>
<svg baseProfile="full" height="155mm" version="1.1" viewBox="0 0 300 155" width="300mm" xmlns="http://www.w3.org/2000/svg" xmlns:ev="http://www.w3.org/2001/xml-events" xmlns:inkscape="http://www.inkscape.org/namespaces/inkscape" xmlns:sodipodi="http://sodipodi.sourceforge.net/DTD/sodipodi-0.dtd" xmlns:xlink="http://www.w3.org/1999/xlink">
  <defs/>
  <path d="M5,5 l232,0 l0,96 l-232,0 l0,-96" fill="none" stroke="black" stroke-width="0.1"/>
  <path d="M27.000000,16.500000 l46.000000,0 l0,27.000000 l-46.000000,0 l0,-27.000000 " fill="none" stroke="black" stroke-width="0.1"/>
  <circle cx="30" cy="55" fill="none" r="3.75" stroke="black" stroke-width="0.1"/>
  <line fill="none" stroke="black" stroke-width="0.1" x1="26.25" x2="33.75" y1="55" y2="55"/>
  <line fill="none" stroke="black" stroke-width="0.1" x1="30" x2="30" y1="51.25" y2="58.75"/>
  <circle cx="70" cy="55" fill="none" r="3.75" stroke="black" stroke-width="0.1"/>
  <line fill="none" stroke="black" stroke-width="0.1" x1="66.25" x2="73.75" y1="55" y2="55"/>
  <line fill="none" stroke="black" stroke-width="0.1" x1="70" x2="70" y1="51.25" y2="58.75"/>
  <circle cx="40.5" cy="75" fill="none" r="3.75" stroke="black" stroke-width="0.1"/>
  <line fill="none" stroke="black" stroke-width="0.1" x1="36.75" x2="44.25" y1="75" y2="75"/>
  <line fill="none" stroke="black" stroke-width="0.1" x1="40.5" x2="40.5" y1="71.25" y2="78.75"/>
  <circle cx="59.5" cy="75" fill="none" r="3.75" stroke="black" stroke-width="0.1"/>
  <line fill="none" stroke="black" stroke-width="0.1" x1="55.75" x2="63.25" y1="75" y2="75"/>
  <line fill="none" stroke="black" stroke-width="0.1" x1="59.5" x2="59.5" y1="71.25" y2="78.75"/>
  <line fill="none" stroke="black" stroke-width="0.1" x1="81.75" x2="88.25" y1="20" y2="20"/>
  <line fill="none" stroke="black" stroke-width="0.1" x1="85" x2="85" y1="16.75" y2="23.25"/>
  <path d="M81.750000,18.129171 a3.750000,3.750000  0 0,1 6.500000,0 l0,3.741657 a 3.750000,3.750000  0 0,1 -6.500000,0 l0,-3.741657 " fill="none" stroke="black" stroke-width="0.1"/>
  <line fill="none" stroke="black" stroke-width="0.1" x1="81.75" x2="88.25" y1="40" y2="40"/>
  <line fill="none" stroke="black" stroke-width="0.1" x1="85" x2="85" y1="36.75" y2="43.25"/>
  <path d="M81.750000,38.129171 a3.750000,3.750000  0 0,1 6.500000,0 l0,3.741657 a 3.750000,3.750000  0 0,1 -6.500000,0 l0,-3.741657 " fill="none" stroke="black" stroke-width="0.1"/>
  <path d="M144.000000,16.500000 l46.000000,0 l0,27.000000 l-46.000000,0 l0,-27.000000 " fill="none" stroke="black" stroke-width="0.1"/>
  <circle cx="167" cy="55" fill="none" r="2.75" stroke="black" stroke-width="0.1"/>
  <line fill="none" stroke="black" stroke-width="0.1" x1="164.25" x2="169.75" y1="55" y2="55"/>
  <line fill="none" stroke="black" stroke-width="0.1" x1="167" x2="167" y1="52.25" y2="57.75"/>
  <circle cx="110.5" cy="65" fill="none" r="3.75" stroke="black" stroke-width="0.1"/>
  <line fill="none" stroke="black" stroke-width="0.1" x1="106.75" x2="114.25" y1="65" y2="65"/>
  <line fill="none" stroke="black" stroke-width="0.1" x1="110.5" x2="110.5" y1="61.25" y2="68.75"/>
  <circle cx="129.5" cy="65" fill="none" r="3.75" stroke="black" stroke-width="0.1"/>
  <line fill="none" stroke="black" stroke-width="0.1" x1="125.75" x2="133.25" y1="65" y2="65"/>
  <line fill="none" stroke="black" stroke-width="0.1" x1="129.5" x2="129.5" y1="61.25" y2="68.75"/>
  <line fill="none" stroke="black" stroke-width="0.1" x1="146.75" x2="153.25" y1="65" y2="65"/>
  <line fill="none" stroke="black" stroke-width="0.1" x1="150" x2="150" y1="61.75" y2="68.25"/>
  <path d="M146.750000,63.129171 a3.750000,3.750000  0 0,1 6.500000,0 l0,3.741657 a 3.750000,3.750000  0 0,1 -6.500000,0 l0,-3.741657 " fill="none" stroke="black" stroke-width="0.1"/>
  <circle cx="180.5" cy="65" fill="none" r="3.75" stroke="black" stroke-width="0.1"/>
  <line fill="none" stroke="black" stroke-width="0.1" x1="176.75" x2="184.25" y1="65" y2="65"/>
  <line fill="none" stroke="black" stroke-width="0.1" x1="180.5" x2="180.5" y1="61.25" y2="68.75"/>
  <circle cx="199.5" cy="65" fill="none" r="3.75" stroke="black" stroke-width="0.1"/>
  <line fill="none" stroke="black" stroke-width="0.1" x1="195.75" x2="203.25" y1="65" y2="65"/>
  <line fill="none" stroke="black" stroke-width="0.1" x1="199.5" x2="199.5" y1="61.25" y2="68.75"/>
  <line fill="none" stroke="black" stroke-width="0.1" x1="216.75" x2="223.25" y1="65" y2="65"/>
  <line fill="none" stroke="black" stroke-width="0.1" x1="220" x2="220" y1="61.75" y2="68.25"/>
  <path d="M216.750000,63.129171 a3.750000,3.750000  0 0,1 6.500000,0 l0,3.741657 a 3.750000,3.750000  0 0,1 -6.500000,0 l0,-3.741657 " fill="none" stroke="black" stroke-width="0.1"/>
  <circle cx="150" cy="85" fill="none" r="3.75" stroke="black" stroke-width="0.1"/>
  <line fill="none" stroke="black" stroke-width="0.1" x1="146.25" x2="153.75" y1="85" y2="85"/>
  <line fill="none" stroke="black" stroke-width="0.1" x1="150" x2="150" y1="81.25" y2="88.75"/>
  <line fill="none" stroke="black" stroke-width="0.1" x1="177.25" x2="183.75" y1="85" y2="85"/>
  <line fill="none" stroke="black" stroke-width="0.1" x1="180.5" x2="180.5" y1="81.75" y2="88.25"/>
  <path d="M177.250000,83.129171 a3.750000,3.750000  0 0,1 6.500000,0 l0,3.741657 a 3.750000,3.750000  0 0,1 -6.500000,0 l0,-3.741657 " fill="none" stroke="black" stroke-width="0.1"/>
</svg>
