<?xml version="1.0" encoding="utf-8" ?>
<svg baseProfile="full" height="155mm" version="1.1" viewBox="0 0 300 155" width="300mm" xmlns="http://www.w3.org/2000/svg" xmlns:ev="http://www.w3.org/2001/xml-events" xmlns:inkscape="http://www.inkscape.org/namespaces/inkscape" xmlns:sodipodi="http://sodipodi.sourceforge.net/DTD/sodipodi-0.dtd" xmlns:xlink="http://www.w3.org/1999/xlink">
  <defs/>
  <path d="M5,5 l232,0 l0,96 l-232,0 l0,-96" fill="none" stroke="black" stroke-width="0.1"/>
  <path d="M27.000000,11.500000 l46.000000,0 l0,27.000000 l-46.000000,0 l0,-27.000000 " fill="none" stroke="black" stroke-width="0.1"/>
  <circle cx="30" cy="50" fill="none" r="3.75" stroke="black" stroke-width="0.1"/>
  <line fill="none" stroke="black" stroke-width="0.1" x1="26.25" x2="33.75" y1="50" y2="50"/>
  <line fill="none" stroke="black" stroke-width="0.1" x1="30" x2="30" y1="46.25" y2="53.75"/>
  <circle cx="70" cy="50" fill="none" r="3.75" stroke="black" stroke-width="0.1"/>
  <line fill="none" stroke="black" stroke-width="0.1" x1="66.25" x2="73.75" y1="50" y2="50"/>
  <line fill="none" stroke="black" stroke-width="0.1" x1="70" x2="70" y1="46.25" y2="53.75"/>
  <circle cx="40.5" cy="70" fill="none" r="3.75" stroke="black" stroke-width="0.1"/>
  <line fill="none" stroke="black" stroke-width="0.1" x1="36.75" x2="44.25" y1="70" y2="70"/>
  <line fill="none" stroke="black" stroke-width="0.1" x1="40.5" x2="40.5" y1="66.25" y2="73.75"/>
  <circle cx="59.5" cy="70" fill="none" r="3.75" stroke="black" stroke-width="0.1"/>
  <line fill="none" stroke="black" stroke-width="0.1" x1="55.75" x2="63.25" y1="70" y2="70"/>
  <line fill="none" stroke="black" stroke-width="0.1" x1="59.5" x2="59.5" y1="66.25" y2="73.75"/>
  <line fill="none" stroke="black" stroke-width="0.1" x1="81.75" x2="88.25" y1="15" y2="15"/>
  <line fill="none" stroke="black" stroke-width="0.1" x1="85" x2="85" y1="11.75" y2="18.25"/>
  <path d="M81.750000,13.129171 a3.750000,3.750000  0 0,1 6.500000,0 l0,3.741657 a 3.750000,3.750000  0 0,1 -6.500000,0 l0,-3.741657 " fill="none" stroke="black" stroke-width="0.1"/>
  <line fill="none" stroke="black" stroke-width="0.1" x1="81.75" x2="88.25" y1="35" y2="35"/>
  <line fill="none" stroke="black" stroke-width="0.1" x1="85" x2="85" y1="31.75" y2="38.25"/>
  <path d="M81.750000,33.129171 a3.750000,3.750000  0 0,1 6.500000,0 l0,3.741657 a 3.750000,3.750000  0 0,1 -6.500000,0 l0,-3.741657 " fill="none" stroke="black" stroke-width="0.1"/>
  <path d="M144.000000,11.500000 l46.000000,0 l0,27.000000 l-46.000000,0 l0,-27.000000 " fill="none" stroke="black" stroke-width="0.1"/>
  <circle cx="167" cy="50" fill="none" r="3.75" stroke="black" stroke-width="0.1"/>
  <line fill="none" stroke="black" stroke-width="0.1" x1="163.25" x2="170.75" y1="50" y2="50"/>
  <line fill="none" stroke="black" stroke-width="0.1" x1="167" x2="167" y1="46.25" y2="53.75"/>
  <circle cx="110.5" cy="60" fill="none" r="3.75" stroke="black" stroke-width="0.1"/>
  <line fill="none" stroke="black" stroke-width="0.1" x1="106.75" x2="114.25" y1="60" y2="60"/>
  <line fill="none" stroke="black" stroke-width="0.1" x1="110.5" x2="110.5" y1="56.25" y2="63.75"/>
  <circle cx="129.5" cy="60" fill="none" r="3.75" stroke="black" stroke-width="0.1"/>
  <line fill="none" stroke="black" stroke-width="0.1" x1="125.75" x2="133.25" y1="60" y2="60"/>
  <line fill="none" stroke="black" stroke-width="0.1" x1="129.5" x2="129.5" y1="56.25" y2="63.75"/>
  <line fill="none" stroke="black" stroke-width="0.1" x1="146.75" x2="153.25" y1="60" y2="60"/>
  <line fill="none" stroke="black" stroke-width="0.1" x1="150" x2="150" y1="56.75" y2="63.25"/>
  <path d="M146.750000,58.129171 a3.750000,3.750000  0 0,1 6.500000,0 l0,3.741657 a 3.750000,3.750000  0 0,1 -6.500000,0 l0,-3.741657 " fill="none" stroke="black" stroke-width="0.1"/>
  <circle cx="180.5" cy="60" fill="none" r="3.75" stroke="black" stroke-width="0.1"/>
  <line fill="none" stroke="black" stroke-width="0.1" x1="176.75" x2="184.25" y1="60" y2="60"/>
  <line fill="none" stroke="black" stroke-width="0.1" x1="180.5" x2="180.5" y1="56.25" y2="63.75"/>
  <circle cx="199.5" cy="60" fill="none" r="3.75" stroke="black" stroke-width="0.1"/>
  <line fill="none" stroke="black" stroke-width="0.1" x1="195.75" x2="203.25" y1="60" y2="60"/>
  <line fill="none" stroke="black" stroke-width="0.1" x1="199.5" x2="199.5" y1="56.25" y2="63.75"/>
  <line fill="none" stroke="black" stroke-width="0.1" x1="216.75" x2="223.25" y1="60" y2="60"/>
  <line fill="none" stroke="black" stroke-width="0.1" x1="220" x2="220" y1="56.75" y2="63.25"/>
  <path d="M216.750000,58.129171 a3.750000,3.750000  0 0,1 6.500000,0 l0,3.741657 a 3.750000,3.750000  0 0,1 -6.500000,0 l0,-3.741657 " fill="none" stroke="black" stroke-width="0.1"/>
  <circle cx="110.5" cy="80" fill="none" r="3.75" stroke="black" stroke-width="0.1"/>
  <line fill="none" stroke="black" stroke-width="0.1" x1="106.75" x2="114.25" y1="80" y2="80"/>
  <line fill="none" stroke="black" stroke-width="0.1" x1="110.5" x2="110.5" y1="76.25" y2="83.75"/>
  <circle cx="129.5" cy="80" fill="none" r="3.75" stroke="black" stroke-width="0.1"/>
  <line fill="none" stroke="black" stroke-width="0.1" x1="125.75" x2="133.25" y1="80" y2="80"/>
  <line fill="none" stroke="black" stroke-width="0.1" x1="129.5" x2="129.5" y1="76.25" y2="83.75"/>
  <line fill="none" stroke="black" stroke-width="0.1" x1="146.75" x2="153.25" y1="80" y2="80"/>
  <line fill="none" stroke="black" stroke-width="0.1" x1="150" x2="150" y1="76.75" y2="83.25"/>
  <path d="M146.750000,78.129171 a3.750000,3.750000  0 0,1 6.500000,0 l0,3.741657 a 3.750000,3.750000  0 0,1 -6.500000,0 l0,-3.741657 " fill="none" stroke="black" stroke-width="0.1"/>
</svg>
